<svg xmlns="http://www.w3.org/2000/svg" viewBox="0 0 56 56" aria-hidden="true">
  <defs>
    <linearGradient id="waBg" x1="0%" y1="0%" x2="100%" y2="100%">
      <stop offset="0%" stop-color="#61FD7D"/>
      <stop offset="100%" stop-color="#2BB826"/>
    </linearGradient>
  </defs>
  <rect width="56" height="56" rx="13" fill="url(#waBg)"/>
  <path fill="#fff" d="M28 10.5C18.3 10.5 10.5 18.3 10.5 28c0 3.1.8 6 2.3 8.6l-2.4 8.9 9.1-2.4A17.4 17.4 0 0 0 28 45.5c9.7 0 17.5-7.8 17.5-17.5S37.7 10.5 28 10.5zm0 32.1a14.5 14.5 0 0 1-7.4-2l-.5-.3-5.4 1.4 1.4-5.3-.4-.5A14.5 14.5 0 1 1 28 42.6zm8-10.9c-.4-.2-2.6-1.3-3-1.4-.4-.2-.7-.2-1 .2-.3.5-1.2 1.4-1.4 1.7-.3.3-.5.3-1 .1a12 12 0 0 1-6-5.3c-.4-.6.3-.6 1-2 .1-.2 0-.5-.1-.7-.2-.2-1-2.5-1.4-3.4-.4-.9-.8-.8-1-.8h-.9c-.3 0-.8.1-1.2.6-.5.5-1.7 1.6-1.7 3.8s1.7 4.4 1.9 4.7c.2.3 3.3 5 8 7 3 1.2 4.1 1.3 5.6 1.1.9-.1 2.7-1.1 3.1-2.1.4-1 .4-2 .3-2.1-.2-.3-.5-.4-.9-.6z"/>
</svg>
